# xmcd
#
# Track frame offsets:
#	150
#	16350
#	34800
#	50549
#	67424
#	78922
#	95572
#	113140
#	126415
#	141678
#	157182
#	167456
#	180806
#
# Disc length: 2609 seconds
#
# Revision: 1
# Processed by: cddbd v1.5.2PL0 Copyright (c) Steve Scherf et al.
# Submitted via: audiograbber 1.81.02
#
DISCID=b60a2f0d
DTITLE=Jack Stenekes and Daughters - The Blessing, Möge der Friede des Herrn di
DTITLE=ch begleiten
DYEAR=1900
DGENRE=
TTITLE0=I Will Never Leave You
TTITLE1=Der Segen
TTITLE2=We Are Lights
TTITLE3=His Forever
TTITLE4=Open And Honest
TTITLE5=Auserwählt
TTITLE6=He Gives Me Power
TTITLE7=Herr reinige uns
TTITLE8=By My Spirit
TTITLE9=Ich lieb Dich Herr
TTITLE10=If Not Now
TTITLE11=Der Herr sorgt treu für sein Volk
TTITLE12=The Blessing
EXTD=
EXTT0=
EXTT1=
EXTT2=
EXTT3=
EXTT4=
EXTT5=
EXTT6=
EXTT7=
EXTT8=
EXTT9=
EXTT10=
EXTT11=
EXTT12=
PLAYORDER=
